<svg id="visual" viewBox="0 0 3000 600" width="3000" height="600" xmlns="http://www.w3.org/2000/svg" xmlns:xlink="http://www.w3.org/1999/xlink" version="1.1"><path d="M0 97L21.7 101C43.3 105 86.7 113 130.2 112C173.7 111 217.3 101 260.8 96C304.3 91 347.7 91 391.2 91C434.7 91 478.3 91 521.8 91C565.3 91 608.7 91 652.2 100C695.7 109 739.3 127 782.8 133C826.3 139 869.7 133 913 132C956.3 131 999.7 135 1043.2 129C1086.7 123 1130.3 107 1173.8 108C1217.3 109 1260.7 127 1304.2 130C1347.7 133 1391.3 121 1434.8 118C1478.3 115 1521.7 121 1565.2 122C1608.7 123 1652.3 119 1695.8 113C1739.3 107 1782.7 99 1826.2 100C1869.7 101 1913.3 111 1956.8 110C2000.3 109 2043.7 97 2087 101C2130.3 105 2173.7 125 2217.2 131C2260.7 137 2304.3 129 2347.8 122C2391.3 115 2434.7 109 2478.2 112C2521.7 115 2565.3 127 2608.8 131C2652.3 135 2695.7 131 2739.2 129C2782.7 127 2826.3 127 2869.8 121C2913.3 115 2956.7 103 2978.3 97L3000 91L3000 0L2978.3 0C2956.7 0 2913.3 0 2869.8 0C2826.3 0 2782.7 0 2739.2 0C2695.7 0 2652.3 0 2608.8 0C2565.3 0 2521.7 0 2478.2 0C2434.7 0 2391.3 0 2347.8 0C2304.3 0 2260.7 0 2217.2 0C2173.7 0 2130.3 0 2087 0C2043.7 0 2000.3 0 1956.8 0C1913.3 0 1869.7 0 1826.2 0C1782.7 0 1739.3 0 1695.8 0C1652.3 0 1608.7 0 1565.2 0C1521.7 0 1478.3 0 1434.8 0C1391.3 0 1347.7 0 1304.2 0C1260.7 0 1217.3 0 1173.8 0C1130.3 0 1086.7 0 1043.2 0C999.7 0 956.3 0 913 0C869.7 0 826.3 0 782.8 0C739.3 0 695.7 0 652.2 0C608.7 0 565.3 0 521.8 0C478.3 0 434.7 0 391.2 0C347.7 0 304.3 0 260.8 0C217.3 0 173.7 0 130.2 0C86.7 0 43.3 0 21.7 0L0 0Z" fill="#ba9603"></path><path d="M0 331L21.7 324C43.3 317 86.7 303 130.2 298C173.7 293 217.3 297 260.8 309C304.3 321 347.7 341 391.2 349C434.7 357 478.3 353 521.8 348C565.3 343 608.7 337 652.2 340C695.7 343 739.3 355 782.8 351C826.3 347 869.7 327 913 319C956.3 311 999.7 315 1043.2 306C1086.7 297 1130.3 275 1173.8 275C1217.3 275 1260.7 297 1304.2 312C1347.7 327 1391.3 335 1434.8 331C1478.3 327 1521.7 311 1565.2 298C1608.7 285 1652.3 275 1695.8 281C1739.3 287 1782.7 309 1826.2 326C1869.7 343 1913.3 355 1956.8 353C2000.3 351 2043.7 335 2087 325C2130.3 315 2173.7 311 2217.2 307C2260.7 303 2304.3 299 2347.8 299C2391.3 299 2434.7 303 2478.2 315C2521.7 327 2565.3 347 2608.8 348C2652.3 349 2695.7 331 2739.2 321C2782.7 311 2826.3 309 2869.8 300C2913.3 291 2956.7 275 2978.3 267L3000 259L3000 89L2978.3 95C2956.7 101 2913.3 113 2869.8 119C2826.3 125 2782.7 125 2739.2 127C2695.7 129 2652.3 133 2608.8 129C2565.3 125 2521.7 113 2478.2 110C2434.7 107 2391.3 113 2347.8 120C2304.3 127 2260.7 135 2217.2 129C2173.7 123 2130.3 103 2087 99C2043.7 95 2000.3 107 1956.8 108C1913.3 109 1869.7 99 1826.2 98C1782.7 97 1739.3 105 1695.8 111C1652.3 117 1608.7 121 1565.2 120C1521.7 119 1478.3 113 1434.8 116C1391.3 119 1347.7 131 1304.2 128C1260.7 125 1217.3 107 1173.8 106C1130.3 105 1086.7 121 1043.2 127C999.7 133 956.3 129 913 130C869.7 131 826.3 137 782.8 131C739.3 125 695.7 107 652.2 98C608.7 89 565.3 89 521.8 89C478.3 89 434.7 89 391.2 89C347.7 89 304.3 89 260.8 94C217.3 99 173.7 109 130.2 110C86.7 111 43.3 103 21.7 99L0 95Z" fill="#ffd953"></path><path d="M0 487L21.7 493C43.3 499 86.7 511 130.2 513C173.7 515 217.3 507 260.8 503C304.3 499 347.7 499 391.2 497C434.7 495 478.3 491 521.8 489C565.3 487 608.7 487 652.2 492C695.7 497 739.3 507 782.8 515C826.3 523 869.7 529 913 528C956.3 527 999.7 519 1043.2 510C1086.7 501 1130.3 491 1173.8 490C1217.3 489 1260.7 497 1304.2 498C1347.7 499 1391.3 493 1434.8 494C1478.3 495 1521.7 503 1565.2 508C1608.7 513 1652.3 515 1695.8 516C1739.3 517 1782.7 517 1826.2 514C1869.7 511 1913.3 505 1956.8 502C2000.3 499 2043.7 499 2087 503C2130.3 507 2173.7 515 2217.2 515C2260.7 515 2304.3 507 2347.8 501C2391.3 495 2434.7 491 2478.2 494C2521.7 497 2565.3 507 2608.8 514C2652.3 521 2695.7 525 2739.2 528C2782.7 531 2826.3 533 2869.8 534C2913.3 535 2956.7 535 2978.3 535L3000 535L3000 257L2978.3 265C2956.7 273 2913.3 289 2869.8 298C2826.3 307 2782.7 309 2739.2 319C2695.7 329 2652.3 347 2608.8 346C2565.3 345 2521.7 325 2478.2 313C2434.7 301 2391.3 297 2347.8 297C2304.3 297 2260.7 301 2217.2 305C2173.7 309 2130.3 313 2087 323C2043.7 333 2000.3 349 1956.8 351C1913.3 353 1869.7 341 1826.2 324C1782.7 307 1739.3 285 1695.8 279C1652.3 273 1608.7 283 1565.2 296C1521.7 309 1478.3 325 1434.8 329C1391.3 333 1347.7 325 1304.2 310C1260.7 295 1217.3 273 1173.8 273C1130.3 273 1086.7 295 1043.2 304C999.7 313 956.3 309 913 317C869.7 325 826.3 345 782.8 349C739.3 353 695.7 341 652.2 338C608.7 335 565.3 341 521.8 346C478.3 351 434.7 355 391.2 347C347.7 339 304.3 319 260.8 307C217.3 295 173.7 291 130.2 296C86.7 301 43.3 315 21.7 322L0 329Z" fill="#ffd953"></path><path d="M0 601L21.7 601C43.3 601 86.7 601 130.2 601C173.7 601 217.3 601 260.8 601C304.3 601 347.7 601 391.2 601C434.7 601 478.3 601 521.8 601C565.3 601 608.7 601 652.2 601C695.7 601 739.3 601 782.8 601C826.3 601 869.7 601 913 601C956.3 601 999.7 601 1043.2 601C1086.7 601 1130.3 601 1173.8 601C1217.3 601 1260.7 601 1304.2 601C1347.7 601 1391.3 601 1434.8 601C1478.3 601 1521.7 601 1565.2 601C1608.7 601 1652.3 601 1695.8 601C1739.3 601 1782.7 601 1826.2 601C1869.7 601 1913.3 601 1956.8 601C2000.3 601 2043.7 601 2087 601C2130.3 601 2173.7 601 2217.2 601C2260.7 601 2304.3 601 2347.8 601C2391.3 601 2434.7 601 2478.2 601C2521.7 601 2565.3 601 2608.8 601C2652.3 601 2695.7 601 2739.2 601C2782.7 601 2826.3 601 2869.8 601C2913.3 601 2956.7 601 2978.3 601L3000 601L3000 533L2978.3 533C2956.7 533 2913.3 533 2869.8 532C2826.3 531 2782.7 529 2739.2 526C2695.7 523 2652.3 519 2608.8 512C2565.3 505 2521.7 495 2478.2 492C2434.7 489 2391.3 493 2347.8 499C2304.3 505 2260.7 513 2217.2 513C2173.7 513 2130.3 505 2087 501C2043.7 497 2000.3 497 1956.8 500C1913.3 503 1869.7 509 1826.2 512C1782.7 515 1739.3 515 1695.8 514C1652.3 513 1608.7 511 1565.2 506C1521.7 501 1478.3 493 1434.8 492C1391.3 491 1347.7 497 1304.2 496C1260.7 495 1217.3 487 1173.8 488C1130.3 489 1086.7 499 1043.2 508C999.7 517 956.3 525 913 526C869.7 527 826.3 521 782.8 513C739.3 505 695.7 495 652.2 490C608.7 485 565.3 485 521.8 487C478.3 489 434.7 493 391.2 495C347.7 497 304.3 497 260.8 501C217.3 505 173.7 513 130.2 511C86.7 509 43.3 497 21.7 491L0 485Z" fill="#ba9603"></path></svg>